<?xml version="1.0" standalone="no"?>
<!DOCTYPE svg PUBLIC "-//W3C//DTD SVG 20010904//EN"
 "http://www.w3.org/TR/2001/REC-SVG-20010904/DTD/svg10.dtd">
<svg version="1.0" xmlns="http://www.w3.org/2000/svg"
 width="1024.000000pt" height="1024.000000pt" viewBox="0 0 1024.000000 1024.000000"
 preserveAspectRatio="xMidYMid meet">
<metadata>
Created by potrace 1.14, written by Peter Selinger 2001-2017
</metadata>
<g transform="translate(0.000000,1024.000000) scale(0.100000,-0.100000)"
fill="#000000" stroke="none">
<path d="M2006 10233 c-4 -4 -18 -9 -33 -11 -32 -4 -153 -62 -153 -74 0 -4 -5
-8 -11 -8 -7 0 -35 -24 -63 -54 -54 -56 -110 -157 -120 -216 -3 -19 -8 -46
-11 -59 -2 -13 -7 -47 -10 -75 -2 -28 -7 -62 -9 -76 -3 -14 -7 -47 -10 -75 -4
-27 -8 -61 -11 -75 -2 -14 -6 -41 -9 -60 -11 -77 -36 -267 -41 -305 -3 -22 -7
-51 -10 -65 -4 -23 -7 -44 -20 -167 -3 -27 -7 -55 -10 -63 -2 -8 -7 -37 -10
-65 -3 -27 -8 -63 -10 -80 -2 -16 -7 -52 -10 -80 -7 -53 -12 -84 -19 -125 -3
-14 -8 -50 -11 -81 -3 -31 -8 -67 -10 -79 -2 -12 -7 -49 -10 -83 -4 -34 -8
-64 -10 -67 -2 -3 -6 -34 -10 -70 -4 -36 -8 -72 -10 -80 -1 -8 -6 -40 -9 -71
-4 -31 -9 -67 -12 -80 -2 -13 -6 -37 -8 -54 -9 -77 -19 -152 -22 -170 -3 -11
-7 -42 -9 -70 -3 -27 -7 -57 -10 -65 -2 -8 -7 -40 -11 -70 -3 -30 -7 -64 -9
-75 -8 -60 -16 -115 -20 -150 -3 -22 -7 -56 -10 -75 -3 -19 -7 -57 -10 -85 -3
-27 -8 -59 -11 -70 -3 -11 -6 -36 -8 -55 -2 -19 -7 -55 -10 -80 -4 -25 -9 -58
-11 -75 -2 -16 -4 -30 -5 -30 0 0 -3 -21 -5 -46 -2 -25 -6 -59 -9 -75 -3 -16
-7 -42 -10 -59 -3 -16 -8 -52 -11 -80 -3 -27 -7 -61 -10 -75 -3 -14 -7 -41
-10 -60 -2 -19 -7 -60 -11 -90 -3 -30 -7 -67 -8 -82 0 -16 -4 -28 -7 -28 -3 0
-5 -10 -4 -22 1 -11 -2 -44 -7 -72 -4 -28 -10 -64 -12 -81 -3 -16 -8 -55 -11
-85 -6 -54 -12 -95 -15 -95 -1 0 -3 -20 -5 -45 -2 -25 -6 -58 -8 -75 -15 -91
-20 -130 -32 -235 -2 -19 -7 -53 -10 -75 -4 -22 -8 -51 -10 -65 -2 -14 -9 -59
-15 -100 -20 -137 -21 -154 -25 -245 -3 -86 11 -160 38 -210 6 -11 11 -23 12
-26 1 -19 74 -106 125 -148 58 -49 162 -94 245 -107 52 -8 244 -8 252 -1 3 4
14 2 24 -3 11 -7 20 -7 24 0 3 6 15 6 30 0 15 -6 27 -6 30 0 3 6 15 6 30 0 15
-6 27 -6 30 0 3 5 15 6 28 1 12 -5 32 -5 44 0 13 5 25 4 28 -1 3 -6 15 -6 30
0 15 6 27 6 30 0 3 -6 15 -6 30 0 15 6 27 6 30 0 3 -6 15 -6 30 0 15 6 27 6
30 0 3 -6 15 -6 30 0 15 6 27 6 30 0 3 -6 15 -6 30 0 15 6 27 6 30 0 3 -6 15
-6 30 0 15 6 27 6 30 0 3 -6 15 -6 30 0 15 6 27 6 30 0 3 -6 15 -6 30 0 15 6
27 6 30 0 3 -6 15 -6 30 0 15 6 27 6 30 0 3 -6 15 -6 30 0 13 5 27 6 29 1 3
-4 26 -5 50 -1 25 4 51 3 58 -1 6 -4 19 -4 28 1 9 5 22 5 30 0 8 -5 21 -5 31
0 9 5 19 7 22 4 7 -8 186 -9 193 -1 4 3 15 2 25 -3 11 -7 20 -7 24 0 3 6 15 6
30 0 15 -6 27 -6 30 0 3 6 15 6 30 0 15 -6 27 -6 30 0 3 5 15 6 28 1 12 -5 32
-5 44 0 13 5 25 4 28 -1 3 -6 15 -6 30 0 15 6 27 6 30 0 3 -6 15 -6 30 0 15 6
27 6 30 0 3 -6 15 -6 30 0 15 6 27 6 30 0 3 -6 15 -6 30 0 15 6 27 6 30 0 3
-6 15 -6 30 0 15 6 27 6 30 0 3 -6 15 -6 30 0 15 6 27 6 30 0 3 -6 15 -6 30 0
15 6 27 6 30 0 3 -6 15 -6 30 0 15 6 27 6 30 0 3 -6 15 -6 30 0 15 6 27 6 30
0 3 -6 15 -6 30 0 13 5 27 6 29 1 3 -4 26 -5 50 -1 25 4 51 3 58 -1 6 -4 19
-4 28 1 9 5 22 5 30 0 8 -5 21 -5 31 0 9 5 19 7 21 4 8 -8 178 -10 178 -2 0 4
14 3 30 -2 17 -5 30 -5 30 0 0 5 13 5 30 0 17 -5 30 -5 30 0 0 5 13 5 30 0 17
-5 30 -5 30 0 0 5 13 5 29 0 16 -4 33 -5 36 -2 4 4 4 -9 0 -28 -5 -19 -9 -44
-11 -55 -1 -11 -3 -20 -4 -20 -1 0 -3 -9 -5 -19 -2 -11 -11 -51 -19 -90 -9
-39 -18 -82 -20 -96 -3 -14 -5 -25 -6 -25 -2 0 -9 -33 -15 -65 -2 -14 -4 -26
-6 -27 -2 -3 -3 -7 -12 -53 -13 -64 -15 -74 -37 -170 -12 -52 -24 -106 -26
-120 -3 -14 -11 -53 -19 -86 -8 -34 -16 -73 -19 -85 -4 -22 -32 -152 -41 -189
-19 -81 -25 -109 -29 -135 -3 -16 -8 -39 -11 -50 -7 -31 -34 -150 -39 -176 -3
-20 -20 -92 -30 -134 -4 -13 -16 -75 -21 -100 -2 -11 -4 -20 -5 -20 -1 0 -3
-9 -5 -19 -2 -11 -11 -51 -19 -90 -9 -39 -18 -80 -20 -91 -3 -11 -9 -40 -15
-65 -5 -25 -12 -56 -15 -70 -2 -14 -18 -86 -35 -160 -17 -74 -32 -147 -35
-163 -3 -15 -7 -35 -10 -45 -3 -9 -7 -28 -10 -42 -3 -14 -7 -34 -10 -45 -8
-32 -37 -168 -42 -195 -3 -14 -10 -43 -15 -65 -5 -22 -12 -51 -14 -65 -6 -32
-13 -64 -15 -70 -1 -3 -2 -8 -2 -11 1 -4 -3 -22 -9 -40 -5 -19 -12 -50 -15
-69 -3 -19 -8 -38 -10 -41 -2 -4 -6 -24 -9 -45 -4 -22 -9 -48 -12 -59 -8 -24
-9 -30 -17 -75 -4 -19 -9 -43 -12 -52 -3 -9 -7 -27 -10 -40 -7 -36 -25 -121
-30 -146 -2 -12 -13 -59 -24 -105 -19 -80 -26 -113 -36 -170 -3 -15 -11 -51
-19 -80 -16 -61 -12 -232 5 -254 2 -2 3 -7 4 -11 11 -70 124 -217 195 -254 15
-7 28 -15 31 -19 3 -3 37 -20 75 -39 64 -31 77 -34 160 -34 115 1 138 6 220
45 68 32 137 91 197 169 31 41 57 79 57 84 1 4 11 21 24 36 12 15 28 36 35 46
7 10 53 77 102 147 50 70 90 130 90 132 0 5 26 37 48 60 6 8 12 16 12 19 0 5
119 179 138 201 5 6 17 24 28 40 10 17 22 35 27 40 4 6 43 61 86 122 43 62 85
123 94 135 9 13 29 41 44 64 104 151 137 200 142 204 6 5 74 104 96 139 6 9
13 18 16 21 3 3 32 43 64 90 32 47 108 156 169 243 61 87 116 166 121 175 6 9
12 19 15 22 3 3 30 41 60 85 29 44 57 82 60 85 3 3 19 26 35 52 17 27 33 48
38 48 4 0 7 6 7 14 0 8 3 16 8 18 4 2 27 32 52 68 24 36 48 67 52 68 4 2 8 8
8 12 0 5 40 67 90 137 49 70 95 136 102 147 7 10 21 29 31 41 9 13 17 28 17
34 0 6 4 11 8 11 5 0 24 24 43 53 28 43 112 164 175 252 26 37 139 200 164
237 14 21 28 38 33 38 4 0 7 4 7 10 0 5 35 59 78 119 178 253 248 354 260 377
7 13 17 24 23 24 5 0 9 4 9 10 0 12 88 141 107 157 8 6 14 15 14 20 -1 4 5 15
12 23 12 14 86 120 171 245 23 33 43 62 46 65 3 3 19 25 35 49 17 24 56 80 87
125 52 74 149 213 223 321 17 23 54 78 84 122 30 43 58 80 63 81 4 2 8 8 8 12
0 8 46 75 180 265 12 17 43 62 70 100 27 39 54 75 60 82 5 7 10 16 10 22 0 5
3 11 8 13 4 2 25 30 47 63 22 33 43 62 46 65 3 3 30 41 60 85 30 44 57 82 62
83 4 2 7 8 7 14 0 5 6 16 12 23 25 28 53 70 65 95 4 8 10 17 13 20 4 3 17 32
30 65 40 105 35 268 -10 347 -6 10 -10 22 -10 28 0 12 -66 105 -95 134 -12 12
-33 27 -48 35 -15 8 -27 18 -27 23 0 4 -7 8 -15 8 -8 0 -15 5 -15 10 0 6 -9
10 -19 10 -11 0 -22 4 -25 9 -9 13 -94 33 -159 36 -32 2 -61 6 -64 9 -3 3 -14
1 -24 -4 -11 -7 -20 -7 -24 0 -3 6 -15 6 -30 0 -15 -6 -27 -6 -30 0 -3 6 -15
6 -30 0 -15 -6 -27 -6 -30 0 -3 6 -15 6 -30 0 -15 -6 -27 -6 -30 0 -3 6 -15 6
-30 0 -15 -6 -27 -6 -30 0 -3 6 -15 6 -30 0 -15 -6 -27 -6 -30 0 -3 6 -15 6
-30 0 -15 -6 -27 -6 -30 0 -3 6 -15 6 -30 0 -15 -6 -27 -6 -30 0 -3 6 -15 6
-30 0 -13 -5 -26 -6 -29 -2 -3 5 -30 5 -61 2 -31 -3 -58 -3 -61 2 -3 4 -16 3
-29 -2 -15 -6 -27 -6 -30 0 -3 6 -15 6 -30 0 -15 -6 -27 -6 -30 0 -3 6 -15 6
-30 0 -15 -6 -27 -6 -30 0 -3 6 -15 6 -30 0 -15 -6 -27 -6 -30 0 -3 6 -15 6
-30 0 -15 -6 -27 -6 -30 0 -3 6 -15 6 -30 0 -15 -6 -27 -6 -30 0 -3 6 -15 6
-30 0 -15 -6 -27 -6 -30 0 -3 6 -15 6 -30 0 -15 -6 -27 -6 -30 0 -3 6 -15 6
-30 0 -15 -6 -27 -6 -30 0 -3 6 -15 6 -30 0 -15 -6 -27 -6 -30 0 -3 5 -15 6
-29 0 -12 -4 -29 -4 -36 0 -8 5 -21 5 -30 0 -8 -4 -22 -4 -31 0 -8 5 -21 5
-29 0 -7 -4 -24 -4 -36 0 -14 6 -26 5 -29 0 -4 -6 -13 -7 -24 -1 -10 6 -23 6
-31 1 -8 -5 -18 -6 -22 -4 -12 8 -183 8 -194 1 -6 -3 -16 -2 -24 3 -8 5 -21 5
-30 0 -9 -5 -22 -5 -28 -1 -7 4 -33 5 -58 1 -24 -4 -47 -3 -50 1 -2 5 -16 4
-29 -1 -15 -6 -27 -6 -30 0 -3 6 -15 6 -30 0 -15 -6 -27 -6 -30 0 -3 6 -15 6
-30 0 -15 -6 -27 -6 -30 0 -3 6 -15 6 -30 0 -15 -6 -27 -6 -30 0 -3 6 -15 6
-30 0 -15 -6 -27 -6 -30 0 -3 6 -15 6 -30 0 -15 -6 -27 -6 -30 0 -3 6 -15 6
-30 0 -15 -6 -27 -6 -30 0 -3 6 -15 6 -30 0 -15 -6 -27 -6 -30 0 -3 6 -15 6
-30 0 -15 -6 -27 -6 -30 0 -3 6 -15 6 -30 0 -15 -6 -27 -6 -30 0 -3 5 -15 6
-29 0 -12 -4 -29 -4 -36 0 -8 5 -21 5 -30 0 -8 -4 -22 -4 -31 0 -8 5 -21 5
-29 0 -7 -4 -24 -4 -36 0 -14 6 -26 5 -29 0 -4 -6 -13 -7 -24 -1 -10 6 -23 6
-31 1 -8 -5 -18 -6 -22 -4 -12 8 -177 9 -184 1 -3 -3 -17 -2 -30 3 -14 6 -26
6 -29 -1 -4 -5 -11 -6 -17 -3 -6 4 -26 7 -45 6 -18 -1 -33 0 -33 2 0 3 42 108
65 161 25 60 39 93 112 275 41 102 81 199 88 215 7 17 27 66 45 110 17 44 37
94 45 110 36 82 151 373 154 390 1 6 8 19 15 30 7 11 20 43 30 70 10 28 27 68
37 91 10 22 28 65 39 95 12 30 27 65 33 79 6 14 11 27 12 30 4 12 26 67 34 85
5 11 26 61 46 110 59 144 74 182 87 212 6 15 12 30 13 33 5 13 18 48 30 75 7
17 23 55 35 85 12 30 29 73 38 95 10 22 16 43 15 47 -2 5 2 8 7 8 6 0 10 5 10
11 0 6 16 53 37 103 31 79 36 103 38 183 4 142 -35 242 -133 341 -64 65 -157
118 -241 138 -46 11 -391 13 -1922 13 -1026 1 -1869 -2 -1873 -6z"/>
</g>
</svg>
